# xmcd
#
# Track frame offsets:
#	150
#	15592
#	33005
#	47595
#	59500
#	72132
#	85472
#	97277
#	111945
#	121435
#	132230
#	142637
#	156975
#	170830
#	188020
#	205547
#	220242
#	230105
#	243810
#	256432
#	269707
#	282890
#	294900
#	307582
#	316250
#	329255
#
# Disc length: 4553 seconds
# Revision: 4
# Processed by: cddbd v1.5.2PL0 Copyright (c) Steve Scherf et al.
# Submitted via: dBpowerAMP V12.0
#
DISCID=7911c71a
DTITLE=Various Artist - Shades of Country 3
DYEAR=1994
DGENRE=Country
TTITLE0=Billie Jo Spears - Blanket on the Ground
TTITLE1=Gatlin Brothers - Love Is Just a Game
TTITLE2=Jeannie C. Riley - Harper Vallet Pta
TTITLE3=Don Everly - So Sad to Watch a Good Love Go Bad
TTITLE4=Johnny Tillotson - I Can't Stop Loving You
TTITLE5=Mickey Gilley - Room Full of Roses
TTITLE6=Don Gibson - Oh Lonesome Me
TTITLE7=Johnny Paycheck - I'm the Only Hell (Mama Ever Raised)
TTITLE8=Roy Orbison - Rockhouse
TTITLE9=Eddy Raven - I Got Mexico
TTITLE10=Patsy Cline - Pick Me Up on My Way Down
TTITLE11=Bellamy Brothers, The - If I Said You Had a Beautiful Body Would You Hold It Against Me
TTITLE12=Lobo - Me and You and a Dog Named Boo
TTITLE13=Bobby Goldsboro - Honey
TTITLE14=Johnny Lee - Lookin' for Love
TTITLE15=Loretta Lynn - Coalminer's Daughter
TTITLE16=Merle Haggard - Mama Tried
TTITLE17=Kendalls, The - Heartaches by the Number
TTITLE18=Crystal Gayle - Crazy
TTITLE19=Bobby Bare - Detroit City
TTITLE20=George Jones - Things Have Gone to Pieces
TTITLE21=Donna Fargo - Funny Face
TTITLE22=Rick Nelson - It's Up to You
TTITLE23=Roger Miller - England Swings
TTITLE24=Lynn Anderson - Rose Garden
TTITLE25=Charlie Rich - Behind Closed Doors
EXTD=
EXTT0=
EXTT1=
EXTT2=
EXTT3=
EXTT4=
EXTT5=
EXTT6=
EXTT7=
EXTT8=
EXTT9=
EXTT10=
EXTT11=
EXTT12=
EXTT13=
EXTT14=
EXTT15=
EXTT16=
EXTT17=
EXTT18=
EXTT19=
EXTT20=
EXTT21=
EXTT22=
EXTT23=
EXTT24=
EXTT25=
PLAYORDER=
